<?xml version="1.0" encoding="utf-8"?>
<!-- Generator: Adobe Illustrator 24.0.0, SVG Export Plug-In . SVG Version: 6.00 Build 0)  -->
<svg version="1.1" id="Capa_1" xmlns="http://www.w3.org/2000/svg" xmlns:xlink="http://www.w3.org/1999/xlink" x="0px" y="0px"
	 viewBox="0 0 533 555" enable-background="new 0 0 533 555" xml:space="preserve">
<path fill-rule="evenodd" clip-rule="evenodd" fill="#D65A31" d="M433.988,211.001c-0.473,15.973-2.842,31.555-6.834,46.934
	c-1.51,5.82-4.701,10.346-9.02,14.51c-25.66,24.735-51.18,49.618-76.639,74.56c-1.541,1.51-2.775,3.857-3.121,5.982
	c-3.816,23.473-7.35,46.992-11.219,70.455c-0.375,2.277-2.217,4.51-3.852,6.338c-2.877,3.217-5.973,6.275-9.232,9.107
	c-29.842,25.895-64.1,34.859-102.713,26.217c-20.284-4.541-40.553-9.213-59.512-18.199c-5.427-2.572-9.14-5.113-10.258-12.236
	c-2.106-13.42-6.384-26.486-9.49-39.762c-9.746-41.662-17.289-83.725-22.751-126.167c-5.232-40.648-8.438-81.437-10.303-122.379
	c-0.343-7.52,1.988-10.553,7.775-13.771c15.128-8.408,30.036-17.223,44.859-26.162c9.239-5.572,18.446-9.578,29.669-10.979
	c39.537-4.932,79.111-8.541,118.958-8.738c11.48-0.059,22.975,0.365,34.445,0.908c5.867,0.275,10.373,2.289,12.723,8.879
	c4.967,13.934,10.951,27.5,16.359,41.277c1.051,2.676,2.402,3.744,5.385,3.992c17.111,1.422,34.092,3.586,50.141,10.314
	c3.27,1.373,5.516,2.961,6.275,6.854c1.555,7.984,4.215,15.77,5.482,23.785C432.598,192.064,433.076,201.567,433.988,211.001z
	 M341.492,195.886c2.611,6.998,1.809,8.504-4.211,9.619c-8.326,1.543-16.619,3.344-24.996,4.529
	c-27.904,3.951-55.887,7.371-83.74,11.639c-10.955,1.68-22.668-0.209-32.764,6.166c-0.365,0.23-1.015,0.275-1.43,0.123
	c-7.493-2.73-15.537-1.139-23.314-4.031c-11.6-4.314-22.354-9.432-31.219-18.064c-1.348-1.311-2.5-3.814-2.281-5.586
	c1.422-11.512,3.187-22.982,4.982-34.443c0.526-3.357,2.817-5.018,6.155-4.092c3.45,0.955,3.556,3.375,2.912,6.699
	c-1.764,9.111-3.191,18.305-4.248,27.525c-0.23,2.002,1.086,4.861,2.644,6.277c10.13,9.203,22.666,13.016,35.881,14.746
	c3.83,0.504,6.98-0.734,8.491-5.506c5.488-17.326,7.999-34.783,6.529-53.066c-0.771-9.605-3.549-16.729-11.319-22.746
	c-9.319-7.219-17.711-15.633-27.244-24.195c-15.847,9.281-33.806,19.746-51.657,30.393c-1,0.596-1.598,2.699-1.557,4.074
	c0.286,9.648,0.612,19.303,1.262,28.934c1.277,18.92,2.12,37.9,4.328,56.719c3.33,28.377,6.614,56.831,11.849,84.892
	c7.091,38.012,15.952,75.695,24.291,113.467c0.473,2.143,2.736,4.686,4.792,5.547c9.176,3.848,18.36,8.018,27.95,10.463
	c16.385,4.176,32.936,8.967,49.667,10.246c33.881,2.588,61.326-11.926,83.707-36.742c0.807-0.897,1.244-2.307,1.447-3.543
	c3.713-22.617,7.318-45.252,11.113-67.854c0.332-1.98,1.42-4.184,2.846-5.58c26.65-26.111,53.434-52.088,80.084-78.2
	c2.02-1.979,3.98-4.553,4.738-7.203c8.369-29.264,8.564-58.662,1.397-88.246c-1.424-5.877-4.246-8.777-9.994-10.604
	c-19.105-6.064-38.984-6.367-58.59-8.699c-4.391-0.522-8.816-0.732-13.193-1.084c-2.752,10.832-2.527,21.065-1.018,31.359
	c0.434,2.961,1.949,4.508,4.738,5.596c9.756,3.811,19.381,7.951,29.123,11.801c1.543,0.609,3.463,0.182,5.139,0.557
	c1.975,0.44,4.67,0.695,5.564,2.027c0.813,1.211-0.066,3.873-0.738,5.697c-1.887,5.111-4.525,9.988-5.939,15.211
	c-0.973,3.596-1.926,7.076-5.965,6.209c-2.014-0.432-3.365-3.961-5.018-6.09c0.348-0.449,0.697-0.898,1.045-1.346
	c-1.773,0.193-3.68,0.031-5.299,0.637c-10.861,4.053-22.084,7.436-32.367,12.66c-11.229,5.703-21.602,13.111-32.271,19.893
	c-2.338,1.486-4.932,2.826-6.303-0.156c-0.871-1.9,0.191-4.734,0.57-7.121c0.078-0.488,0.947-0.887,1.496-1.26
	c23.19-15.771,46.58-31.102,75.406-34.615c0.84-0.104,1.598-0.881,2.395-1.342c-0.639-0.832-1.102-2.072-1.939-2.43
	C357.807,202.505,350.131,199.417,341.492,195.886z M202.785,215.186c13.252-1.639,25.406-3.07,37.523-4.771
	c1.021-0.145,2.186-1.973,2.605-3.244c2.287-6.922,4.836-13.811,6.416-20.906c4.195-18.85,3.143-38.055,2.982-57.166
	c-0.012-1.508-1.299-3.32-2.502-4.449c-6.91-6.498-14.184-12.621-20.908-19.299c-4.031-4.004-7.994-5.816-13.721-4.213
	c-3.785,1.06-7.912,0.842-11.861,1.383c-9.28,1.27-18.545,2.654-28.767,4.129c1.794,2.111,2.758,3.41,3.885,4.545
	c7.27,7.322,14.567,14.619,21.874,21.906c3.674,3.662,8.416,6.15,7.947,12.955c-0.391,5.654,1.705,11.436,2.078,17.199
	C211.451,180.52,209.039,197.374,202.785,215.186z M235.949,99.175c6.957,6.361,12.596,11.744,18.486,16.834
	c4.836,4.176,9.891,8.037,7.201,15.611c-0.156,0.438,0.047,0.99,0.027,1.488c-0.645,15.906-0.717,31.863-2.162,47.697
	c-0.85,9.309-3.879,18.418-6.088,28.338c10.553-1.492,21.201-2.904,31.799-4.631c1.17-0.191,2.502-2.027,2.986-3.377
	c8.785-24.568,14.145-49.809,14.186-76c0.002-2.113-0.949-4.506-2.16-6.291c-4.383-6.469-9.453-12.5-13.434-19.191
	c-1.488-2.5-2.639-3.279-5.174-3.156c-9.135,0.441-18.279,0.732-27.412,1.229C248.625,98.028,243.061,98.599,235.949,99.175z
	 M354.713,140.788c-5.895-14.584-11.313-28.127-16.934-41.584c-0.4-0.957-2.275-1.77-3.508-1.834
	c-7.801-0.416-15.615-0.658-23.428-0.844c-4.705-0.113-9.416-0.021-15.127-0.021c4.719,6.516,8.576,12.113,12.73,17.482
	c3.197,4.135,4.619,7.857,4.103,13.768c-2.156,24.77-5.727,49.145-14.035,72.678c-0.186,0.525,0.047,1.197,0.127,2.482
	c13.512-2.43,26.66-4.793,39.809-7.156c-1.014-1.43-2.082-2.23-2.816-1.994c-5.318,1.701-6.854-1.535-7.787-5.684
	c-3.414-15.172-3.566-30.32,0.48-45.404c1.402-5.227,2.701-5.572,7.832-4.504C341.928,139.376,347.846,139.856,354.713,140.788z"/>
<rect x="5" y="5" fill="none" stroke="#D65A31" stroke-width="10" stroke-miterlimit="10" width="523" height="545"/>
<g>
</g>
<g>
</g>
<g>
</g>
<g>
</g>
<g>
</g>
<g>
</g>
<g>
</g>
<g>
</g>
<g>
</g>
<g>
</g>
<g>
</g>
<g>
</g>
<g>
</g>
<g>
</g>
<g>
</g>
</svg>
