<?xml version="1.0" encoding="utf-8"?>
<!-- Generator: Adobe Illustrator 24.0.0, SVG Export Plug-In . SVG Version: 6.00 Build 0)  -->
<svg version="1.1" id="Capa_1" xmlns="http://www.w3.org/2000/svg" xmlns:xlink="http://www.w3.org/1999/xlink" x="0px" y="0px"
	 viewBox="0 0 533 555" enable-background="new 0 0 533 555" xml:space="preserve">
<path fill-rule="evenodd" clip-rule="evenodd" fill="#EEEEEE" d="M195.058,118.707c2.727-15.883,5.346-31.768,8.314-47.586
	c0.361-1.932,2.244-4.084,4.016-5.167c12.561-7.685,26.34-9.807,40.818-8.285c0.973,0.103,1.949,0.187,3.379,0.323
	c0.812-5.698,1.836-11.222,2.316-16.793c0.373-4.321,2.666-6.465,6.455-7.862c11.215-4.135,22.26-3.842,32.959,1.43
	c7.898,3.893,14.99,8.654,12.549,18.751c8.656,1.014,16.783,1.449,24.682,3.027c9.299,1.858,12.105,6.024,12.359,15.411
	c1.201,44.311,4.783,88.44,10.24,132.422c0.16,1.285,0.641,2.53,0.873,3.418c7.416-2.527,14.604-5.032,21.828-7.419
	c6.07-2.006,8.301-0.534,8.803,5.906c1.141,14.608,1.647,29.286,3.365,43.822c4.137,35.035,8.195,70.103,13.744,104.926
	c1.301,8.173-0.289,13.998-3.867,20.302c-8.859,15.616-22.168,27.304-34.772,39.685c-10.193,10.014-19.793,20.646-29.373,31.258
	c-1.576,1.746-2.51,4.85-2.369,7.244c0.93,15.615,2.043,31.225,3.551,46.791c0.393,4.043-0.65,6.578-3.656,9.002
	c-15.357,12.389-32.672,16.912-52.295,14.617c-13.998-1.637-28.158-2.733-42.238-2.645c-21.281,0.133-40.658-5.801-59.283-15.377
	c-3.029-1.557-6.641-1.998-9.631-3.607c-1.721-0.926-3.701-3.051-3.902-4.826c-0.783-6.932-1.15-13.938-1.229-20.92
	c-0.408-36.729-9.908-71.579-23.83-105.031c-9.537-22.916-8.566-46.105-7.244-69.635c2.848-50.669,13.941-100.153,22.086-150.061
	c0.32-1.969,0.547-3.964,1.018-5.898c1.084-4.445,0.969-10.094,3.715-13.04c6.48-6.949,14.65-12.101,24.512-13.369
	C187.032,118.998,191.177,118.954,195.058,118.707z M338.665,323.891c2.324,3.323,4.969,5.461,5.264,7.886
	c0.549,4.49-4.016,3.707-6.572,4.203c-14.924,2.891-28.875,8.234-41.078,17.248c-7.32,5.409-13.787,11.988-20.541,18.146
	c-3.129,2.855-6.416,2.998-7.512-0.498c-0.611-1.949,0.314-5.201,1.73-6.844c14.518-16.827,32.678-28.139,53.926-34.473
	c2.877-0.858,4.539-1.752,4.443-5.241c-0.775-27.823,0.107-55.584,2.512-83.339c0.875-10.077,3.338-18.448,11.975-24.412
	c1.145-0.791,1.514-3.197,1.609-4.891c0.121-2.126-0.44-4.287-0.662-6.438c-2.559-24.807-5.514-49.583-7.537-74.435
	c-1.633-20.061-2.078-40.217-3.268-60.318c-0.086-1.448-1.809-3.826-3.033-4.009c-6.855-1.027-13.793-1.518-20.705-2.179
	c-3.219-0.308-4.217,1.157-4.332,4.373c-0.516,14.469-1.619,28.921-1.938,43.393c-0.816,37.133-1.346,74.273-1.916,111.411
	c-0.025,1.683,0.105,4.122,1.15,4.918c2.521,1.925,3.992,4.413,2.283,6.729c-1.301,1.762-4.342,2.721-6.756,3.102
	c-13.275,2.104-26.795,3.059-39.844,6.076c-13.053,3.018-25.684,7.899-38.424,12.182c-3.641,1.224-6.682,1.496-8.24-2.58
	c-1.148-3.006,0.822-4.578,3.469-5.564c9.145-3.408,18.271-6.864,27.084-10.179c-0.25-2.54-0.689-4.808-0.658-7.068
	c0.182-12.487,0.32-24.978,0.771-37.457c0.686-18.964,1.217-37.948,2.549-56.872c1.541-21.898,3.922-43.737,5.75-65.617
	c0.096-1.163-1.465-3.45-2.453-3.568c-11.088-1.33-21.957-0.489-32.008,4.898c-1.377,0.737-2.756,2.534-3.053,4.051
	c-2.355,12.053-5.781,24.094-6.352,36.256c-1.248,26.608-1.096,53.284-1.338,79.934c-0.154,16.835-0.025,33.674,0.068,50.51
	c0.02,3.335-1.146,5.816-4.574,5.902c-3.471,0.086-4.707-2.304-4.691-5.699c0.021-4.316-0.502-8.635-0.508-12.953
	c-0.047-33.802-0.027-67.605-0.027-101.44c-9.398-2.188-23.738,2.77-28.986,10.262c-0.799,1.141-1.057,2.741-1.309,4.174
	c-4.605,26.347-9.43,52.661-13.664,79.068c-3.211,20.011-6.018,40.102-8.328,60.234c-1.535,13.369-2.254,26.863-2.639,40.32
	c-0.316,11.026-1.023,22.07,3.48,32.848c4.863,11.635,8.574,23.755,12.672,35.703c7.682,22.401,13.678,45.156,14.73,68.996
	c0.461,10.447,1.361,20.875,2.031,30.818c3.244,1.352,6.221,2.332,8.959,3.771c19.227,10.105,39.381,15.42,61.387,14.475
	c11.022-0.473,22.217,1.15,33.217,2.668c16.424,2.266,31.512-0.258,44.826-10.488c1.559-1.197,3.131-3.695,3.041-5.508
	c-0.701-14.113-1.826-28.205-2.785-42.305c-0.377-5.541,0.943-10.627,4.844-14.699c11.279-11.771,22.463-23.645,34.045-35.111
	c11.385-11.268,23.193-22.117,30.428-36.759c0.904-1.825,1.65-4.125,1.391-6.061c-1.385-10.376-3.432-20.668-4.656-31.061
	c-3.777-32.028-7.318-64.086-10.869-96.141c-0.85-7.68-1.379-15.393-2.059-23.131c-10.377,1.685-26.232,10.916-32.33,18.84
	c-1.014,1.318-1.451,3.302-1.605,5.028c-0.887,9.941-2.107,19.889-2.281,29.851C338.419,285.095,338.665,305.37,338.665,323.891z
	 M291.839,228.517c0-17.495-0.172-35.107,0.045-52.713c0.264-21.461,0.625-42.926,1.369-64.375
	c0.684-19.77,2.02-39.515,2.783-59.282c0.078-2.037-1.246-4.873-2.859-6.104c-7.926-6.04-17.004-7.221-26.457-4.565
	c-1.531,0.43-3.346,2.698-3.602,4.34c-1.318,8.422-2.348,16.9-3.15,25.39c-2.363,24.974-5.211,49.925-6.672,74.955
	c-1.732,29.671-2.217,59.415-3.254,89.475C264.064,233.249,277.245,231.003,291.839,228.517z"/>
<rect x="7" y="7" fill="none" stroke="#EEEEEE" stroke-width="12" stroke-miterlimit="10" width="521" height="539"/>
</svg>
