<?xml version="1.0" encoding="utf-8"?>
<!-- Generator: Adobe Illustrator 24.0.0, SVG Export Plug-In . SVG Version: 6.00 Build 0)  -->
<svg version="1.1" id="Capa_1" xmlns="http://www.w3.org/2000/svg" xmlns:xlink="http://www.w3.org/1999/xlink" x="0px" y="0px"
	 viewBox="0 0 533 555" enable-background="new 0 0 533 555" xml:space="preserve">
<path fill-rule="evenodd" clip-rule="evenodd" fill="#EEEEEE" stroke="#EEEEEE" stroke-width="4" stroke-miterlimit="10" d="
	M342.514,214.954c7.768-2.158,15.523-4.359,23.304-6.47c41.943-11.379,84.538-19.434,127.685-24.635
	c9.529-1.149,10.129-0.639,12.408,8.745c2.551,10.495,2.464,20.965,0.089,31.489c-0.747,3.306-2.288,4.797-5.823,4.589
	c-1.768-0.104-3.673,0.536-5.381,1.187c-29.679,11.316-59.304,22.782-89.045,33.931c-4.17,1.565-6.006,3.766-7.119,7.982
	c-9.893,37.48-20.093,74.878-30.06,112.337c-1.236,4.646-3.895,6.939-8.438,8.229c-67.553,19.164-135.991,34.44-205.352,45.426
	c-31.089,4.924-62.398,8.469-93.607,12.643c-1.086,0.145-2.17,0.324-3.253,0.492c-8.467,1.316-8.543,1.356-12.479-6.201
	c-16.436-31.56-22.896-65.066-19.263-100.396c0.354-3.436,2.591-6.786,4.424-9.903c0.578-0.983,2.696-1.525,4.097-1.504
	c8.459,0.135,16.922,0.358,25.368,0.843c3.545,0.203,5.581-0.939,7.542-3.999c14.827-23.129,29.592-46.307,44.954-69.083
	c14.111-20.924,31.362-39.227,49.344-56.958c7.648-7.54,16.856-7.538,25.928-8.39c14.415-1.352,28.07,1.345,39.923,10.513
	c1.043,0.807,3.788,0.425,5.199-0.364c30.035-16.808,59.451-34.809,90.11-50.396c35.397-17.995,71.887-33.865,107.873-50.726
	c3.009-1.412,5.513-1.085,8.414,0.396c14.233,7.267,21.527,21.56,19.718,37.098c-0.879,7.555-6.046,10.077-11.559,13.07
	c-27.495,14.93-54.985,29.878-82.358,45.026c-7.881,4.361-15.374,9.414-23.045,14.148
	C342.246,214.368,342.38,214.661,342.514,214.954z M37.41,342.691c-2.177,15.242-1.577,29.824,0.578,44.37
	c2.736,18.478,8.462,36.015,17.277,52.509c0.594,1.111,2.692,2.214,3.945,2.071c17.724-2.011,35.499-3.753,53.108-6.52
	c33.051-5.195,66.091-10.543,98.974-16.681c48.737-9.097,96.88-20.835,144.519-34.531c1.794-0.516,3.864-2.62,4.43-4.416
	c3.94-12.45,7.535-25.013,11.202-37.55c1.018-3.485,1.907-7.009,2.855-10.514c-0.348-0.382-0.695-0.764-1.042-1.147
	c-8.565,3.268-17.192,6.383-25.656,9.884c-3.297,1.362-6.185,2.17-7.925-1.595c-1.598-3.467,0.889-5.162,3.785-6.19
	c10.146-3.598,20.267-7.268,30.496-10.617c2.348-0.767,3.574-1.528,4.18-4.081c2.939-12.405,6.177-24.738,9.247-37.113
	c0.801-3.219,1.389-6.49,2.253-10.586c-2.627,0.945-4.233,1.49-5.815,2.098c-14.899,5.703-29.799,11.396-44.679,17.146
	c-2.611,1.009-5.083,1.403-6.2-1.751c-0.997-2.81-0.21-5.251,2.903-6.438c1.021-0.393,2.052-0.763,3.073-1.156
	c51.403-19.689,102.795-39.416,154.241-58.997c3.798-1.446,5.648-3.456,5.359-7.492c-0.389-5.423-0.691-10.853-0.931-16.285
	c-0.164-3.759-2.185-4.636-5.588-4.13c-13.15,1.952-26.361,3.523-39.46,5.749c-45.237,7.684-89.683,18.556-133.182,33.178
	c-2.472,0.83-5.199,1.263-7.796,1.22c-1.39-0.024-3.537-1.194-3.935-2.331c-0.507-1.456,0.116-3.53,0.813-5.09
	c0.445-0.988,1.873-1.584,2.925-2.257c16.204-10.379,31.998-21.478,48.728-30.943c28.831-16.313,58.255-31.595,87.387-47.388
	c0.912-0.495,1.734-1.776,1.949-2.823c2.073-10.089-0.516-18.784-8.192-25.849c-3.348-3.082-6.558-4.017-11.347-1.986
	c-71.217,30.202-139.561,65.809-205.044,106.859c-7.16,4.489-14.274,9.05-21.382,13.621c-2.383,1.533-4.924,1.558-5.929-1.024
	c-0.654-1.682,0.183-4.208,0.997-6.079c0.469-1.08,2.209-1.624,3.392-2.387c6.354-4.113,12.712-8.217,19.46-12.578
	c-1.344-1.057-2.017-1.677-2.775-2.166c-10.145-6.553-21.495-7.528-33.021-6.228c-5.248,0.592-11.76,1.38-15.186,4.667
	c-12.95,12.422-26.357,24.834-36.857,39.221c-20.226,27.711-38.591,56.764-57.713,85.27c-0.426,0.636-0.809,1.363-0.977,2.101
	c-1.576,6.891-1.561,6.926-8.644,6.951C56.686,342.715,47.16,342.691,37.41,342.691z"/>
<rect x="8" y="7" fill="none" stroke="#EEEEEE" stroke-width="12" stroke-miterlimit="10" width="520" height="540"/>
</svg>
